<mxfile host="65bd71144e">
    <diagram id="Yf5iXe8wE7UPwUYLJQs8" name="Page-1">
        <mxGraphModel dx="1485" dy="668" grid="1" gridSize="10" guides="1" tooltips="1" connect="1" arrows="1" fold="1" page="1" pageScale="1" pageWidth="850" pageHeight="1100" math="0" shadow="0">
            <root>
                <mxCell id="0"/>
                <mxCell id="1" parent="0"/>
                <mxCell id="2" value="Student" style="shape=umlActor;verticalLabelPosition=bottom;verticalAlign=top;html=1;" parent="1" vertex="1">
                    <mxGeometry x="30" y="30" width="30" height="60" as="geometry"/>
                </mxCell>
                <mxCell id="3" value="Admin&lt;span style=&quot;color: rgba(0, 0, 0, 0); font-family: monospace; font-size: 0px; text-align: start;&quot;&gt;%3CmxGraphModel%3E%3Croot%3E%3CmxCell%20id%3D%220%22%2F%3E%3CmxCell%20id%3D%221%22%20parent%3D%220%22%2F%3E%3CmxCell%20id%3D%222%22%20value%3D%22Student%22%20style%3D%22shape%3DumlActor%3BverticalLabelPosition%3Dbottom%3BverticalAlign%3Dtop%3Bhtml%3D1%3B%22%20vertex%3D%221%22%20parent%3D%221%22%3E%3CmxGeometry%20x%3D%2230%22%20y%3D%2230%22%20width%3D%2230%22%20height%3D%2260%22%20as%3D%22geometry%22%2F%3E%3C%2FmxCell%3E%3C%2Froot%3E%3C%2FmxGraphModel%3E&lt;/span&gt;" style="shape=umlActor;verticalLabelPosition=bottom;verticalAlign=top;html=1;" parent="1" vertex="1">
                    <mxGeometry x="150" y="30" width="30" height="60" as="geometry"/>
                </mxCell>
                <mxCell id="4" value="Staff" style="shape=umlActor;verticalLabelPosition=bottom;verticalAlign=top;html=1;" parent="1" vertex="1">
                    <mxGeometry x="200" y="30" width="30" height="60" as="geometry"/>
                </mxCell>
                <mxCell id="5" value="Felow" style="shape=umlActor;verticalLabelPosition=bottom;verticalAlign=top;html=1;" parent="1" vertex="1">
                    <mxGeometry x="90" y="30" width="30" height="60" as="geometry"/>
                </mxCell>
                <mxCell id="6" value="Student" style="shape=umlActor;verticalLabelPosition=bottom;verticalAlign=top;html=1;" parent="1" vertex="1">
                    <mxGeometry x="30" y="980" width="30" height="60" as="geometry"/>
                </mxCell>
                <mxCell id="7" value="Admin&lt;span style=&quot;color: rgba(0, 0, 0, 0); font-family: monospace; font-size: 0px; text-align: start;&quot;&gt;%3CmxGraphModel%3E%3Croot%3E%3CmxCell%20id%3D%220%22%2F%3E%3CmxCell%20id%3D%221%22%20parent%3D%220%22%2F%3E%3CmxCell%20id%3D%222%22%20value%3D%22Student%22%20style%3D%22shape%3DumlActor%3BverticalLabelPosition%3Dbottom%3BverticalAlign%3Dtop%3Bhtml%3D1%3B%22%20vertex%3D%221%22%20parent%3D%221%22%3E%3CmxGeometry%20x%3D%2230%22%20y%3D%2230%22%20width%3D%2230%22%20height%3D%2260%22%20as%3D%22geometry%22%2F%3E%3C%2FmxCell%3E%3C%2Froot%3E%3C%2FmxGraphModel%3E&lt;/span&gt;" style="shape=umlActor;verticalLabelPosition=bottom;verticalAlign=top;html=1;" parent="1" vertex="1">
                    <mxGeometry x="149" y="980" width="30" height="60" as="geometry"/>
                </mxCell>
                <mxCell id="8" value="Staff" style="shape=umlActor;verticalLabelPosition=bottom;verticalAlign=top;html=1;" parent="1" vertex="1">
                    <mxGeometry x="199" y="980" width="30" height="60" as="geometry"/>
                </mxCell>
                <mxCell id="9" value="Felow" style="shape=umlActor;verticalLabelPosition=bottom;verticalAlign=top;html=1;" parent="1" vertex="1">
                    <mxGeometry x="90" y="980" width="30" height="60" as="geometry"/>
                </mxCell>
                <mxCell id="10" value="" style="rounded=0;whiteSpace=wrap;html=1;" parent="1" vertex="1">
                    <mxGeometry x="42.5" y="150" width="5" height="120" as="geometry"/>
                </mxCell>
                <mxCell id="13" value="Authentication Subsystem" style="rounded=0;whiteSpace=wrap;html=1;shadow=0;" parent="1" vertex="1">
                    <mxGeometry x="280" y="60" width="160" height="30" as="geometry"/>
                </mxCell>
                <mxCell id="14" value="Report &amp;amp; Analytic Subsystem" style="rounded=0;whiteSpace=wrap;html=1;shadow=0;" parent="1" vertex="1">
                    <mxGeometry x="890" y="60" width="160" height="30" as="geometry"/>
                </mxCell>
                <mxCell id="16" value="Payment Management Subsystem" style="rounded=0;whiteSpace=wrap;html=1;shadow=0;" parent="1" vertex="1">
                    <mxGeometry x="680" y="60" width="190" height="30" as="geometry"/>
                </mxCell>
                <mxCell id="17" value="Room Management Subsystem" style="rounded=0;whiteSpace=wrap;html=1;shadow=0;" parent="1" vertex="1">
                    <mxGeometry x="470" y="60" width="190" height="30" as="geometry"/>
                </mxCell>
                <mxCell id="18" value="Centralised Dashboard" style="rounded=0;whiteSpace=wrap;html=1;shadow=0;" parent="1" vertex="1">
                    <mxGeometry x="1140" y="60" width="190" height="30" as="geometry"/>
                </mxCell>
                <mxCell id="19" value="" style="endArrow=classic;html=1;endSize=4;startSize=4;" parent="1" edge="1">
                    <mxGeometry width="50" height="50" relative="1" as="geometry">
                        <mxPoint x="47.5" y="155" as="sourcePoint"/>
                        <mxPoint x="360" y="155" as="targetPoint"/>
                    </mxGeometry>
                </mxCell>
                <mxCell id="20" value="Login as student" style="text;html=1;align=center;verticalAlign=middle;resizable=0;points=[];autosize=1;strokeColor=none;fillColor=none;" parent="1" vertex="1">
                    <mxGeometry x="249.5" y="130" width="110" height="30" as="geometry"/>
                </mxCell>
                <mxCell id="21" value="" style="edgeStyle=none;html=1;entryX=0.5;entryY=0;entryDx=0;entryDy=0;dashed=1;dashPattern=8 8;endArrow=none;endFill=0;startArrow=none;" parent="1" source="24" edge="1">
                    <mxGeometry relative="1" as="geometry">
                        <mxPoint x="359.40999999999997" y="90" as="sourcePoint"/>
                        <mxPoint x="359.40999999999997" y="170" as="targetPoint"/>
                    </mxGeometry>
                </mxCell>
                <mxCell id="23" value="" style="edgeStyle=none;html=1;dashed=1;dashPattern=8 8;endArrow=none;endFill=0;" parent="1" source="2" edge="1">
                    <mxGeometry relative="1" as="geometry">
                        <mxPoint x="44.40999999999997" y="100" as="sourcePoint"/>
                        <mxPoint x="45" y="150" as="targetPoint"/>
                    </mxGeometry>
                </mxCell>
                <mxCell id="25" value="" style="edgeStyle=none;html=1;entryX=0.5;entryY=0;entryDx=0;entryDy=0;dashed=1;dashPattern=8 8;endArrow=none;endFill=0;" parent="1" edge="1">
                    <mxGeometry relative="1" as="geometry">
                        <mxPoint x="361.40999999999997" y="90" as="sourcePoint"/>
                        <mxPoint x="362" y="153.9999999999999" as="targetPoint"/>
                    </mxGeometry>
                </mxCell>
                <mxCell id="24" value="" style="rounded=0;whiteSpace=wrap;html=1;" parent="1" vertex="1">
                    <mxGeometry x="359.5" y="153" width="5" height="40" as="geometry"/>
                </mxCell>
                <mxCell id="26" value="" style="edgeStyle=none;html=1;entryX=0.5;entryY=0;entryDx=0;entryDy=0;dashed=1;dashPattern=8 8;endArrow=none;endFill=0;" parent="1" target="27" edge="1">
                    <mxGeometry relative="1" as="geometry">
                        <mxPoint x="561" y="93" as="sourcePoint"/>
                        <mxPoint x="562.59" y="156.9999999999999" as="targetPoint"/>
                    </mxGeometry>
                </mxCell>
                <mxCell id="27" value="" style="rounded=0;whiteSpace=wrap;html=1;" parent="1" vertex="1">
                    <mxGeometry x="558" y="193" width="5" height="40" as="geometry"/>
                </mxCell>
                <mxCell id="28" value="" style="endArrow=classic;html=1;endSize=4;startSize=4;entryX=0;entryY=0;entryDx=0;entryDy=0;" parent="1" target="27" edge="1">
                    <mxGeometry width="50" height="50" relative="1" as="geometry">
                        <mxPoint x="364.5" y="193" as="sourcePoint"/>
                        <mxPoint x="677" y="193" as="targetPoint"/>
                    </mxGeometry>
                </mxCell>
                <mxCell id="32" value="" style="edgeStyle=none;html=1;dashed=1;dashPattern=8 8;endArrow=none;endFill=0;exitX=0.419;exitY=1.082;exitDx=0;exitDy=0;exitPerimeter=0;entryX=0.5;entryY=0;entryDx=0;entryDy=0;" parent="1" source="16" target="36" edge="1">
                    <mxGeometry relative="1" as="geometry">
                        <mxPoint x="759.5" y="130" as="sourcePoint"/>
                        <mxPoint x="790" y="200" as="targetPoint"/>
                    </mxGeometry>
                </mxCell>
                <mxCell id="33" value="" style="rounded=0;whiteSpace=wrap;html=1;" parent="1" vertex="1">
                    <mxGeometry x="756.5" y="230" width="3.5" height="40" as="geometry"/>
                </mxCell>
                <mxCell id="34" value="" style="endArrow=classic;html=1;endSize=4;startSize=4;entryX=0;entryY=0;entryDx=0;entryDy=0;" parent="1" target="33" edge="1">
                    <mxGeometry width="50" height="50" relative="1" as="geometry">
                        <mxPoint x="563" y="230" as="sourcePoint"/>
                        <mxPoint x="875.5" y="230" as="targetPoint"/>
                    </mxGeometry>
                </mxCell>
                <mxCell id="36" value="" style="rounded=0;whiteSpace=wrap;html=1;" parent="1" vertex="1">
                    <mxGeometry x="756.5" y="230" width="5" height="40" as="geometry"/>
                </mxCell>
                <mxCell id="37" value="" style="edgeStyle=none;html=1;dashed=1;dashPattern=8 8;endArrow=none;endFill=0;exitX=0.419;exitY=1.082;exitDx=0;exitDy=0;exitPerimeter=0;" edge="1" parent="1">
                    <mxGeometry relative="1" as="geometry">
                        <mxPoint x="970.6099999999999" y="90.00000000000003" as="sourcePoint"/>
                        <mxPoint x="970" y="340" as="targetPoint"/>
                    </mxGeometry>
                </mxCell>
                <mxCell id="39" value="" style="rounded=0;whiteSpace=wrap;html=1;" vertex="1" parent="1">
                    <mxGeometry x="967.5" y="338" width="5" height="40" as="geometry"/>
                </mxCell>
                <mxCell id="43" value="&lt;span style=&quot;&quot;&gt;&lt;font style=&quot;font-size: 11px;&quot;&gt;Online control&lt;br&gt;Real time room avaibility&lt;br&gt;&lt;/font&gt;&lt;br&gt;&lt;/span&gt;" style="text;html=1;align=center;verticalAlign=middle;resizable=0;points=[];autosize=1;strokeColor=none;fillColor=none;" vertex="1" parent="1">
                    <mxGeometry x="425" y="150" width="140" height="60" as="geometry"/>
                </mxCell>
                <mxCell id="44" value="Make payment&lt;br&gt;Payment information" style="text;html=1;align=center;verticalAlign=middle;resizable=0;points=[];autosize=1;strokeColor=none;fillColor=none;" vertex="1" parent="1">
                    <mxGeometry x="631.5" y="190" width="130" height="40" as="geometry"/>
                </mxCell>
                <mxCell id="47" style="edgeStyle=none;curved=1;html=1;exitX=1;exitY=0.25;exitDx=0;exitDy=0;endArrow=classic;endFill=1;startSize=4;endSize=4;entryX=1;entryY=0.75;entryDx=0;entryDy=0;" edge="1" parent="1">
                    <mxGeometry relative="1" as="geometry">
                        <mxPoint x="761.5000000000001" y="259" as="targetPoint"/>
                        <Array as="points">
                            <mxPoint x="780" y="230"/>
                            <mxPoint x="790" y="240"/>
                            <mxPoint x="780" y="260"/>
                        </Array>
                        <mxPoint x="761.94" y="239" as="sourcePoint"/>
                    </mxGeometry>
                </mxCell>
                <mxCell id="49" value="&lt;font style=&quot;font-size: 8px;&quot;&gt;Payment receipt&lt;/font&gt;" style="text;html=1;align=center;verticalAlign=middle;resizable=0;points=[];autosize=1;strokeColor=none;fillColor=none;" vertex="1" parent="1">
                    <mxGeometry x="772.5" y="210" width="80" height="30" as="geometry"/>
                </mxCell>
                <mxCell id="50" value="" style="edgeStyle=none;html=1;dashed=1;dashPattern=8 8;endArrow=none;endFill=0;entryX=0.5;entryY=0;entryDx=0;entryDy=0;" edge="1" parent="1" target="53">
                    <mxGeometry relative="1" as="geometry">
                        <mxPoint x="104.5" y="90" as="sourcePoint"/>
                        <mxPoint x="105" y="270" as="targetPoint"/>
                    </mxGeometry>
                </mxCell>
                <mxCell id="51" value="" style="endArrow=classic;html=1;endSize=4;startSize=4;exitX=1.5;exitY=0.022;exitDx=0;exitDy=0;exitPerimeter=0;entryX=0;entryY=0;entryDx=0;entryDy=0;" edge="1" parent="1" target="39">
                    <mxGeometry width="50" height="50" relative="1" as="geometry">
                        <mxPoint x="365" y="338.00000000000006" as="sourcePoint"/>
                        <mxPoint x="930" y="339" as="targetPoint"/>
                    </mxGeometry>
                </mxCell>
                <mxCell id="53" value="" style="rounded=0;whiteSpace=wrap;html=1;" vertex="1" parent="1">
                    <mxGeometry x="102.5" y="300" width="5" height="80" as="geometry"/>
                </mxCell>
                <mxCell id="54" value="" style="endArrow=classic;html=1;endSize=4;startSize=4;" edge="1" parent="1">
                    <mxGeometry width="50" height="50" relative="1" as="geometry">
                        <mxPoint x="107.5" y="299.5" as="sourcePoint"/>
                        <mxPoint x="360" y="300" as="targetPoint"/>
                    </mxGeometry>
                </mxCell>
                <mxCell id="55" value="" style="edgeStyle=none;html=1;dashed=1;dashPattern=8 8;endArrow=none;endFill=0;" edge="1" parent="1">
                    <mxGeometry relative="1" as="geometry">
                        <mxPoint x="361.49999999999983" y="193" as="sourcePoint"/>
                        <mxPoint x="362" y="303" as="targetPoint"/>
                    </mxGeometry>
                </mxCell>
                <mxCell id="56" value="" style="rounded=0;whiteSpace=wrap;html=1;" vertex="1" parent="1">
                    <mxGeometry x="359.5" y="298" width="5" height="40" as="geometry"/>
                </mxCell>
                <mxCell id="57" value="&lt;span style=&quot;color: rgb(0, 0, 0); font-family: Helvetica; font-size: 12px; font-style: normal; font-variant-ligatures: normal; font-variant-caps: normal; font-weight: 400; letter-spacing: normal; orphans: 2; text-align: center; text-indent: 0px; text-transform: none; widows: 2; word-spacing: 0px; -webkit-text-stroke-width: 0px; background-color: rgb(251, 251, 251); text-decoration-thickness: initial; text-decoration-style: initial; text-decoration-color: initial; float: none; display: inline !important;&quot;&gt;Login as Fellow/JKM&lt;/span&gt;" style="text;whiteSpace=wrap;html=1;fontSize=8;" vertex="1" parent="1">
                    <mxGeometry x="244.5" y="275" width="120" height="40" as="geometry"/>
                </mxCell>
                <mxCell id="59" value="&lt;span style=&quot;color: rgb(0, 0, 0); font-family: Helvetica; font-size: 12px; font-style: normal; font-variant-ligatures: normal; font-variant-caps: normal; font-weight: 400; letter-spacing: normal; orphans: 2; text-align: center; text-indent: 0px; text-transform: none; widows: 2; word-spacing: 0px; -webkit-text-stroke-width: 0px; background-color: rgb(251, 251, 251); text-decoration-thickness: initial; text-decoration-style: initial; text-decoration-color: initial; float: none; display: inline !important;&quot;&gt;Student college merits&lt;/span&gt;" style="text;whiteSpace=wrap;html=1;fontSize=8;" vertex="1" parent="1">
                    <mxGeometry x="840" y="315" width="150" height="40" as="geometry"/>
                </mxCell>
                <mxCell id="60" style="edgeStyle=none;curved=1;html=1;exitX=1;exitY=0.25;exitDx=0;exitDy=0;endArrow=classic;endFill=1;startSize=4;endSize=4;entryX=1;entryY=0.75;entryDx=0;entryDy=0;" edge="1" parent="1">
                    <mxGeometry relative="1" as="geometry">
                        <mxPoint x="972.5" y="367" as="targetPoint"/>
                        <Array as="points">
                            <mxPoint x="991" y="338"/>
                            <mxPoint x="1001" y="348"/>
                            <mxPoint x="991" y="368"/>
                        </Array>
                        <mxPoint x="972.94" y="347" as="sourcePoint"/>
                    </mxGeometry>
                </mxCell>
                <mxCell id="61" value="&lt;span style=&quot;&quot;&gt;Quota active application &lt;br&gt;success rate&lt;/span&gt;" style="text;html=1;align=center;verticalAlign=middle;resizable=0;points=[];autosize=1;strokeColor=none;fillColor=none;" vertex="1" parent="1">
                    <mxGeometry x="990" y="338" width="150" height="40" as="geometry"/>
                </mxCell>
                <mxCell id="62" value="" style="rounded=0;whiteSpace=wrap;html=1;" vertex="1" parent="1">
                    <mxGeometry x="162.5" y="430" width="5" height="130" as="geometry"/>
                </mxCell>
                <mxCell id="63" value="" style="endArrow=classic;html=1;endSize=4;startSize=4;" edge="1" parent="1">
                    <mxGeometry width="50" height="50" relative="1" as="geometry">
                        <mxPoint x="167.5" y="439" as="sourcePoint"/>
                        <mxPoint x="360" y="440" as="targetPoint"/>
                    </mxGeometry>
                </mxCell>
                <mxCell id="64" value="" style="rounded=0;whiteSpace=wrap;html=1;" vertex="1" parent="1">
                    <mxGeometry x="359.5" y="438" width="5" height="40" as="geometry"/>
                </mxCell>
                <mxCell id="65" value="&lt;span style=&quot;color: rgb(0, 0, 0); font-family: Helvetica; font-size: 12px; font-style: normal; font-variant-ligatures: normal; font-variant-caps: normal; font-weight: 400; letter-spacing: normal; orphans: 2; text-align: center; text-indent: 0px; text-transform: none; widows: 2; word-spacing: 0px; -webkit-text-stroke-width: 0px; background-color: rgb(251, 251, 251); text-decoration-thickness: initial; text-decoration-style: initial; text-decoration-color: initial; float: none; display: inline !important;&quot;&gt;Login as Admin&lt;/span&gt;" style="text;whiteSpace=wrap;html=1;fontSize=8;" vertex="1" parent="1">
                    <mxGeometry x="270" y="410" width="120" height="40" as="geometry"/>
                </mxCell>
                <mxCell id="66" value="" style="edgeStyle=none;html=1;dashed=1;dashPattern=8 8;endArrow=none;endFill=0;entryX=0.5;entryY=0;entryDx=0;entryDy=0;" edge="1" parent="1" target="62">
                    <mxGeometry relative="1" as="geometry">
                        <mxPoint x="165" y="90" as="sourcePoint"/>
                        <mxPoint x="165.5" y="270" as="targetPoint"/>
                    </mxGeometry>
                </mxCell>
                <mxCell id="67" value="" style="edgeStyle=none;html=1;dashed=1;dashPattern=8 8;endArrow=none;endFill=0;" edge="1" parent="1">
                    <mxGeometry relative="1" as="geometry">
                        <mxPoint x="361.4999999999998" y="339" as="sourcePoint"/>
                        <mxPoint x="362" y="439" as="targetPoint"/>
                    </mxGeometry>
                </mxCell>
                <mxCell id="68" value="" style="edgeStyle=none;html=1;entryX=0.5;entryY=0;entryDx=0;entryDy=0;dashed=1;dashPattern=8 8;endArrow=none;endFill=0;" edge="1" parent="1" target="69">
                    <mxGeometry relative="1" as="geometry">
                        <mxPoint x="561" y="238" as="sourcePoint"/>
                        <mxPoint x="562.59" y="301.9999999999999" as="targetPoint"/>
                    </mxGeometry>
                </mxCell>
                <mxCell id="69" value="" style="rounded=0;whiteSpace=wrap;html=1;" vertex="1" parent="1">
                    <mxGeometry x="558" y="478" width="5" height="40" as="geometry"/>
                </mxCell>
                <mxCell id="71" value="" style="edgeStyle=none;html=1;entryX=0.5;entryY=0;entryDx=0;entryDy=0;dashed=1;dashPattern=8 8;endArrow=none;endFill=0;startArrow=none;" edge="1" parent="1">
                    <mxGeometry relative="1" as="geometry">
                        <mxPoint x="359.59" y="454.1042471042473" as="sourcePoint"/>
                        <mxPoint x="359.49999999999983" y="454" as="targetPoint"/>
                    </mxGeometry>
                </mxCell>
                <mxCell id="72" value="" style="endArrow=classic;html=1;endSize=4;startSize=4;entryX=0;entryY=0;entryDx=0;entryDy=0;" edge="1" parent="1">
                    <mxGeometry width="50" height="50" relative="1" as="geometry">
                        <mxPoint x="364.59" y="477" as="sourcePoint"/>
                        <mxPoint x="558.09" y="477" as="targetPoint"/>
                    </mxGeometry>
                </mxCell>
                <mxCell id="73" value="&lt;span style=&quot;color: rgb(0, 0, 0); font-family: Helvetica; font-size: 12px; font-style: normal; font-variant-ligatures: normal; font-variant-caps: normal; font-weight: 400; letter-spacing: normal; orphans: 2; text-align: center; text-indent: 0px; text-transform: none; widows: 2; word-spacing: 0px; -webkit-text-stroke-width: 0px; background-color: rgb(251, 251, 251); text-decoration-thickness: initial; text-decoration-style: initial; text-decoration-color: initial; float: none; display: inline !important;&quot;&gt;Room allocation&lt;/span&gt;" style="text;whiteSpace=wrap;html=1;fontSize=8;" vertex="1" parent="1">
                    <mxGeometry x="460" y="450" width="120" height="40" as="geometry"/>
                </mxCell>
                <mxCell id="74" value="" style="edgeStyle=none;html=1;dashed=1;dashPattern=8 8;endArrow=none;endFill=0;exitX=0.419;exitY=1.082;exitDx=0;exitDy=0;exitPerimeter=0;entryX=0.5;entryY=0;entryDx=0;entryDy=0;" edge="1" parent="1" target="118">
                    <mxGeometry relative="1" as="geometry">
                        <mxPoint x="970.6099999999997" y="378" as="sourcePoint"/>
                        <mxPoint x="970" y="628" as="targetPoint"/>
                    </mxGeometry>
                </mxCell>
                <mxCell id="75" value="" style="rounded=0;whiteSpace=wrap;html=1;" vertex="1" parent="1">
                    <mxGeometry x="967.5" y="516" width="5" height="40" as="geometry"/>
                </mxCell>
                <mxCell id="77" value="" style="edgeStyle=none;html=1;entryX=0.5;entryY=0;entryDx=0;entryDy=0;dashed=1;dashPattern=8 8;endArrow=none;endFill=0;startArrow=none;" edge="1" parent="1">
                    <mxGeometry relative="1" as="geometry">
                        <mxPoint x="558.0899999999999" y="494.1042471042473" as="sourcePoint"/>
                        <mxPoint x="557.9999999999998" y="494" as="targetPoint"/>
                    </mxGeometry>
                </mxCell>
                <mxCell id="78" value="" style="endArrow=classic;html=1;endSize=4;startSize=4;entryX=0.25;entryY=0;entryDx=0;entryDy=0;" edge="1" parent="1" target="75">
                    <mxGeometry width="50" height="50" relative="1" as="geometry">
                        <mxPoint x="563.0899999999999" y="517" as="sourcePoint"/>
                        <mxPoint x="950" y="517" as="targetPoint"/>
                    </mxGeometry>
                </mxCell>
                <mxCell id="79" value="&lt;span style=&quot;font-size: 12px; text-align: center;&quot;&gt;Overview reports&lt;/span&gt;" style="text;whiteSpace=wrap;html=1;fontSize=8;" vertex="1" parent="1">
                    <mxGeometry x="870" y="490" width="120" height="40" as="geometry"/>
                </mxCell>
                <mxCell id="80" style="edgeStyle=none;curved=1;html=1;exitX=0;exitY=1;exitDx=0;exitDy=0;endArrow=classic;endFill=1;startSize=4;endSize=4;dashed=1;" edge="1" parent="1" source="36">
                    <mxGeometry relative="1" as="geometry">
                        <mxPoint x="47.5" y="265" as="targetPoint"/>
                        <mxPoint x="965" y="270" as="sourcePoint"/>
                    </mxGeometry>
                </mxCell>
                <mxCell id="81" value="" style="edgeStyle=none;html=1;dashed=1;dashPattern=8 8;endArrow=none;endFill=0;exitX=0.25;exitY=1;exitDx=0;exitDy=0;entryX=0.5;entryY=0;entryDx=0;entryDy=0;entryPerimeter=0;" edge="1" parent="1" source="10" target="6">
                    <mxGeometry relative="1" as="geometry">
                        <mxPoint x="44.58" y="550" as="sourcePoint"/>
                        <mxPoint x="45" y="970" as="targetPoint"/>
                    </mxGeometry>
                </mxCell>
                <mxCell id="83" style="edgeStyle=none;curved=1;html=1;exitX=0;exitY=1;exitDx=0;exitDy=0;endArrow=classic;endFill=1;startSize=4;endSize=4;dashed=1;" edge="1" parent="1">
                    <mxGeometry relative="1" as="geometry">
                        <mxPoint x="110" y="378" as="targetPoint"/>
                        <mxPoint x="967.5" y="378" as="sourcePoint"/>
                    </mxGeometry>
                </mxCell>
                <mxCell id="84" value="" style="edgeStyle=none;html=1;dashed=1;dashPattern=8 8;endArrow=none;endFill=0;exitX=0.25;exitY=1;exitDx=0;exitDy=0;entryX=0.5;entryY=0;entryDx=0;entryDy=0;entryPerimeter=0;" edge="1" parent="1" target="9">
                    <mxGeometry relative="1" as="geometry">
                        <mxPoint x="104.38" y="378" as="sourcePoint"/>
                        <mxPoint x="106" y="970" as="targetPoint"/>
                    </mxGeometry>
                </mxCell>
                <mxCell id="85" style="edgeStyle=none;curved=1;html=1;endArrow=classic;endFill=1;startSize=4;endSize=4;dashed=1;" edge="1" parent="1">
                    <mxGeometry relative="1" as="geometry">
                        <mxPoint x="167.5" y="357.29" as="targetPoint"/>
                        <mxPoint x="970" y="357" as="sourcePoint"/>
                    </mxGeometry>
                </mxCell>
                <mxCell id="86" value="&lt;span style=&quot;color: rgb(0, 0, 0); font-family: Helvetica; font-size: 12px; font-style: normal; font-variant-ligatures: normal; font-variant-caps: normal; font-weight: 400; letter-spacing: normal; orphans: 2; text-align: center; text-indent: 0px; text-transform: none; widows: 2; word-spacing: 0px; -webkit-text-stroke-width: 0px; background-color: rgb(251, 251, 251); text-decoration-thickness: initial; text-decoration-style: initial; text-decoration-color: initial; float: none; display: inline !important;&quot;&gt;Quota&amp;nbsp;&lt;/span&gt;&lt;span style=&quot;font-size: 12px; text-align: center;&quot;&gt;active application&lt;/span&gt;&lt;br style=&quot;border-color: var(--border-color); font-size: 12px; text-align: center;&quot;&gt;&lt;span style=&quot;font-size: 12px; text-align: center;&quot;&gt;success rate updated info&lt;/span&gt;" style="text;whiteSpace=wrap;html=1;fontSize=8;" vertex="1" parent="1">
                    <mxGeometry x="216.75" y="320" width="175.5" height="40" as="geometry"/>
                </mxCell>
                <mxCell id="88" style="edgeStyle=none;curved=1;html=1;endArrow=classic;endFill=1;startSize=4;endSize=4;dashed=1;" edge="1" parent="1">
                    <mxGeometry relative="1" as="geometry">
                        <mxPoint x="167.5" y="556.29" as="targetPoint"/>
                        <mxPoint x="970" y="556" as="sourcePoint"/>
                    </mxGeometry>
                </mxCell>
                <mxCell id="89" value="" style="edgeStyle=none;html=1;dashed=1;dashPattern=8 8;endArrow=none;endFill=0;entryX=0.5;entryY=0;entryDx=0;entryDy=0;entryPerimeter=0;" edge="1" parent="1" target="7">
                    <mxGeometry relative="1" as="geometry">
                        <mxPoint x="164.29" y="560" as="sourcePoint"/>
                        <mxPoint x="160" y="970" as="targetPoint"/>
                    </mxGeometry>
                </mxCell>
                <mxCell id="90" value="" style="endArrow=classic;html=1;endSize=4;startSize=4;entryX=0;entryY=0;entryDx=0;entryDy=0;" edge="1" parent="1" target="91">
                    <mxGeometry width="50" height="50" relative="1" as="geometry">
                        <mxPoint x="216.75" y="691" as="sourcePoint"/>
                        <mxPoint x="409.25" y="692" as="targetPoint"/>
                    </mxGeometry>
                </mxCell>
                <mxCell id="91" value="" style="rounded=0;whiteSpace=wrap;html=1;" vertex="1" parent="1">
                    <mxGeometry x="359.5" y="691" width="5" height="40" as="geometry"/>
                </mxCell>
                <mxCell id="92" value="" style="edgeStyle=none;html=1;entryX=0.5;entryY=0;entryDx=0;entryDy=0;dashed=1;dashPattern=8 8;endArrow=none;endFill=0;startArrow=none;" edge="1" parent="1">
                    <mxGeometry relative="1" as="geometry">
                        <mxPoint x="359.59000000000015" y="707.1042471042474" as="sourcePoint"/>
                        <mxPoint x="359.5" y="707" as="targetPoint"/>
                    </mxGeometry>
                </mxCell>
                <mxCell id="93" value="" style="rounded=0;whiteSpace=wrap;html=1;" vertex="1" parent="1">
                    <mxGeometry x="211.75" y="690" width="5" height="120" as="geometry"/>
                </mxCell>
                <mxCell id="94" value="" style="edgeStyle=none;html=1;dashed=1;dashPattern=8 8;endArrow=none;endFill=0;entryX=0.5;entryY=0;entryDx=0;entryDy=0;" edge="1" parent="1" target="93">
                    <mxGeometry relative="1" as="geometry">
                        <mxPoint x="215" y="90" as="sourcePoint"/>
                        <mxPoint x="215.5" y="270" as="targetPoint"/>
                    </mxGeometry>
                </mxCell>
                <mxCell id="95" value="&lt;span style=&quot;color: rgb(0, 0, 0); font-family: Helvetica; font-size: 12px; font-style: normal; font-variant-ligatures: normal; font-variant-caps: normal; font-weight: 400; letter-spacing: normal; orphans: 2; text-align: center; text-indent: 0px; text-transform: none; widows: 2; word-spacing: 0px; -webkit-text-stroke-width: 0px; background-color: rgb(251, 251, 251); text-decoration-thickness: initial; text-decoration-style: initial; text-decoration-color: initial; float: none; display: inline !important;&quot;&gt;Login as Staff&lt;/span&gt;" style="text;whiteSpace=wrap;html=1;fontSize=8;" vertex="1" parent="1">
                    <mxGeometry x="280" y="660" width="120" height="40" as="geometry"/>
                </mxCell>
                <mxCell id="96" value="" style="edgeStyle=none;html=1;dashed=1;dashPattern=8 8;endArrow=none;endFill=0;entryX=0.5;entryY=0;entryDx=0;entryDy=0;" edge="1" parent="1" target="91">
                    <mxGeometry relative="1" as="geometry">
                        <mxPoint x="362" y="480" as="sourcePoint"/>
                        <mxPoint x="450" y="660" as="targetPoint"/>
                    </mxGeometry>
                </mxCell>
                <mxCell id="97" value="" style="edgeStyle=none;html=1;entryX=0.5;entryY=0;entryDx=0;entryDy=0;dashed=1;dashPattern=8 8;endArrow=none;endFill=0;startArrow=none;" edge="1" parent="1">
                    <mxGeometry relative="1" as="geometry">
                        <mxPoint x="359.5899999999999" y="706.1042471042474" as="sourcePoint"/>
                        <mxPoint x="359.4999999999998" y="706" as="targetPoint"/>
                    </mxGeometry>
                </mxCell>
                <mxCell id="98" value="" style="endArrow=classic;html=1;endSize=4;startSize=4;entryX=0;entryY=0;entryDx=0;entryDy=0;" edge="1" parent="1">
                    <mxGeometry width="50" height="50" relative="1" as="geometry">
                        <mxPoint x="364.5899999999999" y="729" as="sourcePoint"/>
                        <mxPoint x="558.0900000000001" y="729" as="targetPoint"/>
                    </mxGeometry>
                </mxCell>
                <mxCell id="100" value="" style="edgeStyle=none;html=1;entryX=0.5;entryY=0;entryDx=0;entryDy=0;dashed=1;dashPattern=8 8;endArrow=none;endFill=0;startArrow=none;" edge="1" parent="1">
                    <mxGeometry relative="1" as="geometry">
                        <mxPoint x="558.0899999999999" y="746.1042471042474" as="sourcePoint"/>
                        <mxPoint x="557.9999999999998" y="746" as="targetPoint"/>
                    </mxGeometry>
                </mxCell>
                <mxCell id="101" value="" style="rounded=0;whiteSpace=wrap;html=1;" vertex="1" parent="1">
                    <mxGeometry x="558" y="730" width="5" height="40" as="geometry"/>
                </mxCell>
                <mxCell id="102" value="" style="edgeStyle=none;html=1;entryX=0.5;entryY=0;entryDx=0;entryDy=0;dashed=1;dashPattern=8 8;endArrow=none;endFill=0;startArrow=none;" edge="1" parent="1">
                    <mxGeometry relative="1" as="geometry">
                        <mxPoint x="558.0899999999999" y="746.1042471042474" as="sourcePoint"/>
                        <mxPoint x="557.9999999999998" y="746" as="targetPoint"/>
                    </mxGeometry>
                </mxCell>
                <mxCell id="103" value="&lt;span style=&quot;&quot;&gt;&lt;font style=&quot;font-size: 11px;&quot;&gt;Online control&lt;/font&gt;&lt;br&gt;&lt;/span&gt;" style="text;html=1;align=center;verticalAlign=middle;resizable=0;points=[];autosize=1;strokeColor=none;fillColor=none;" vertex="1" parent="1">
                    <mxGeometry x="468" y="700" width="90" height="30" as="geometry"/>
                </mxCell>
                <mxCell id="104" value="" style="rounded=0;whiteSpace=wrap;html=1;" vertex="1" parent="1">
                    <mxGeometry x="757.5" y="769" width="3.5" height="40" as="geometry"/>
                </mxCell>
                <mxCell id="105" value="" style="endArrow=classic;html=1;endSize=4;startSize=4;entryX=0;entryY=0;entryDx=0;entryDy=0;" edge="1" parent="1" target="104">
                    <mxGeometry width="50" height="50" relative="1" as="geometry">
                        <mxPoint x="564" y="769" as="sourcePoint"/>
                        <mxPoint x="876.5" y="769" as="targetPoint"/>
                    </mxGeometry>
                </mxCell>
                <mxCell id="106" value="" style="rounded=0;whiteSpace=wrap;html=1;" vertex="1" parent="1">
                    <mxGeometry x="757.5" y="769" width="5" height="40" as="geometry"/>
                </mxCell>
                <mxCell id="107" value="&lt;span style=&quot;&quot;&gt;Payment information&lt;/span&gt;" style="text;html=1;align=center;verticalAlign=middle;resizable=0;points=[];autosize=1;strokeColor=none;fillColor=none;" vertex="1" parent="1">
                    <mxGeometry x="632.5" y="734" width="130" height="30" as="geometry"/>
                </mxCell>
                <mxCell id="108" value="" style="edgeStyle=none;html=1;dashed=1;dashPattern=8 8;endArrow=none;endFill=0;entryX=0.5;entryY=0;entryDx=0;entryDy=0;" edge="1" parent="1" target="101">
                    <mxGeometry relative="1" as="geometry">
                        <mxPoint x="560.41" y="518" as="sourcePoint"/>
                        <mxPoint x="590" y="720" as="targetPoint"/>
                    </mxGeometry>
                </mxCell>
                <mxCell id="109" value="" style="rounded=0;whiteSpace=wrap;html=1;" vertex="1" parent="1">
                    <mxGeometry x="757.5" y="769" width="3.5" height="40" as="geometry"/>
                </mxCell>
                <mxCell id="110" value="" style="rounded=0;whiteSpace=wrap;html=1;" vertex="1" parent="1">
                    <mxGeometry x="757.5" y="769" width="5" height="40" as="geometry"/>
                </mxCell>
                <mxCell id="111" style="edgeStyle=none;curved=1;html=1;exitX=1;exitY=0.25;exitDx=0;exitDy=0;endArrow=classic;endFill=1;startSize=4;endSize=4;entryX=1;entryY=0.75;entryDx=0;entryDy=0;" edge="1" parent="1">
                    <mxGeometry relative="1" as="geometry">
                        <mxPoint x="762.5" y="798" as="targetPoint"/>
                        <Array as="points">
                            <mxPoint x="781" y="769"/>
                            <mxPoint x="791" y="779"/>
                            <mxPoint x="781" y="799"/>
                        </Array>
                        <mxPoint x="762.94" y="778" as="sourcePoint"/>
                    </mxGeometry>
                </mxCell>
                <mxCell id="112" value="&lt;span style=&quot;&quot;&gt;Payment history&lt;/span&gt;" style="text;html=1;align=center;verticalAlign=middle;resizable=0;points=[];autosize=1;strokeColor=none;fillColor=none;" vertex="1" parent="1">
                    <mxGeometry x="760" y="740" width="110" height="30" as="geometry"/>
                </mxCell>
                <mxCell id="113" value="" style="edgeStyle=none;html=1;dashed=1;dashPattern=8 8;endArrow=none;endFill=0;exitX=0.419;exitY=1.082;exitDx=0;exitDy=0;exitPerimeter=0;entryX=0.5;entryY=0;entryDx=0;entryDy=0;" edge="1" parent="1" target="110">
                    <mxGeometry relative="1" as="geometry">
                        <mxPoint x="759.2700000000001" y="271.2299999999999" as="sourcePoint"/>
                        <mxPoint x="758.66" y="408.77" as="targetPoint"/>
                    </mxGeometry>
                </mxCell>
                <mxCell id="114" style="edgeStyle=none;curved=1;html=1;endArrow=classic;endFill=1;startSize=4;endSize=4;dashed=1;exitX=0.5;exitY=1;exitDx=0;exitDy=0;entryX=0.5;entryY=1;entryDx=0;entryDy=0;" edge="1" parent="1" source="110" target="93">
                    <mxGeometry relative="1" as="geometry">
                        <mxPoint x="216.75" y="788.6999999999997" as="targetPoint"/>
                        <mxPoint x="1019.25" y="788.4099999999997" as="sourcePoint"/>
                    </mxGeometry>
                </mxCell>
                <mxCell id="116" value="" style="edgeStyle=none;html=1;dashed=1;dashPattern=8 8;endArrow=none;endFill=0;entryX=0.5;entryY=0;entryDx=0;entryDy=0;entryPerimeter=0;" edge="1" parent="1" target="8">
                    <mxGeometry relative="1" as="geometry">
                        <mxPoint x="214.41" y="810" as="sourcePoint"/>
                        <mxPoint x="300" y="930" as="targetPoint"/>
                    </mxGeometry>
                </mxCell>
                <mxCell id="117" value="Authentication Subsystem" style="rounded=0;whiteSpace=wrap;html=1;shadow=0;" vertex="1" parent="1">
                    <mxGeometry x="280" y="1010" width="160" height="30" as="geometry"/>
                </mxCell>
                <mxCell id="118" value="Report &amp;amp; Analytic Subsystem" style="rounded=0;whiteSpace=wrap;html=1;shadow=0;" vertex="1" parent="1">
                    <mxGeometry x="890" y="1010" width="160" height="30" as="geometry"/>
                </mxCell>
                <mxCell id="119" value="Payment Management Subsystem" style="rounded=0;whiteSpace=wrap;html=1;shadow=0;" vertex="1" parent="1">
                    <mxGeometry x="680" y="1010" width="190" height="30" as="geometry"/>
                </mxCell>
                <mxCell id="120" value="Room Management Subsystem" style="rounded=0;whiteSpace=wrap;html=1;shadow=0;" vertex="1" parent="1">
                    <mxGeometry x="470" y="1010" width="190" height="30" as="geometry"/>
                </mxCell>
                <mxCell id="121" value="" style="edgeStyle=none;html=1;dashed=1;dashPattern=8 8;endArrow=none;endFill=0;exitX=0.5;exitY=1;exitDx=0;exitDy=0;" edge="1" parent="1" source="91">
                    <mxGeometry relative="1" as="geometry">
                        <mxPoint x="372" y="490" as="sourcePoint"/>
                        <mxPoint x="362" y="1010" as="targetPoint"/>
                    </mxGeometry>
                </mxCell>
                <mxCell id="122" value="" style="edgeStyle=none;html=1;dashed=1;dashPattern=8 8;endArrow=none;endFill=0;entryX=0.474;entryY=0.333;entryDx=0;entryDy=0;entryPerimeter=0;" edge="1" parent="1" target="120">
                    <mxGeometry relative="1" as="geometry">
                        <mxPoint x="559.91" y="780" as="sourcePoint"/>
                        <mxPoint x="560" y="1000" as="targetPoint"/>
                    </mxGeometry>
                </mxCell>
                <mxCell id="123" value="" style="edgeStyle=none;html=1;dashed=1;dashPattern=8 8;endArrow=none;endFill=0;entryX=0.42;entryY=-0.09;entryDx=0;entryDy=0;entryPerimeter=0;" edge="1" parent="1" target="119">
                    <mxGeometry relative="1" as="geometry">
                        <mxPoint x="760" y="820" as="sourcePoint"/>
                        <mxPoint x="760" y="1030.9999999999998" as="targetPoint"/>
                    </mxGeometry>
                </mxCell>
            </root>
        </mxGraphModel>
    </diagram>
</mxfile>